<svg preserveAspectRatio="xMidYMid meet" data-bbox="-37.5 -37.5 450 450" height="500" viewBox="-37.5 -37.5 450 450" width="500" xmlns="http://www.w3.org/2000/svg" data-type="color" role="img" aria-label="Image of the See Me Please logo. Our logo features a beautiful and busy brain, our company name and a tiny little wheelchair weaved into the picture.  Click to take back to home page">
            <g>
                <defs>
                    <clipPath id="db960291-cd91-43ea-8fad-871a01a8791d_comp-lnisigcf">
                        <path d="M27 39h271v220H27Zm0 0"></path>
                    </clipPath>
                    <clipPath id="ae6d99f8-d488-4ccb-abf8-6abba7658639_comp-lnisigcf">
                        <path d="M4.344 67.676 242.32 11.574l56.446 239.438-237.977 56.101Zm0 0"></path>
                    </clipPath>
                    <clipPath id="be606df2-78aa-406b-a17b-a491bd2e425a_comp-lnisigcf">
                        <path d="M242.285 11.582 4.31 67.684 60.754 307.12l237.976-56.1Zm0 0"></path>
                    </clipPath>
                    <clipPath id="f6a3364a-6eeb-4cc0-b00d-2f78e9f72e3d_comp-lnisigcf">
                        <path d="M285 231h5v4h-5Zm0 0"></path>
                    </clipPath>
                    <clipPath id="58633a42-2f62-404b-a028-21b33f8699ce_comp-lnisigcf">
                        <path d="m283.492 234.727 7.445-6.297 11.625 13.742-7.445 6.297Zm0 0"></path>
                    </clipPath>
                    <clipPath id="ee82066f-8362-430c-8f32-5c9c9c0ee759_comp-lnisigcf">
                        <path d="m283.492 234.727 7.445-6.297 11.625 13.742-7.445 6.297Zm0 0"></path>
                    </clipPath>
                    <clipPath id="9abc0b42-5b15-4558-90cd-fb24f63e1469_comp-lnisigcf">
                        <path d="M289 234h8v5h-8Zm0 0"></path>
                    </clipPath>
                    <clipPath id="6a6f104a-b4aa-4a37-a52d-fc6032fe9cca_comp-lnisigcf">
                        <path d="m283.492 234.727 7.445-6.297 11.625 13.742-7.445 6.297Zm0 0"></path>
                    </clipPath>
                    <clipPath id="9fc84f88-18af-467b-8e65-7c65708ec5c8_comp-lnisigcf">
                        <path d="m283.492 234.727 7.445-6.297 11.625 13.742-7.445 6.297Zm0 0"></path>
                    </clipPath>
                    <clipPath id="1b067df8-b23a-4ff1-8464-78919c2cbf15_comp-lnisigcf">
                        <path d="M287 236h15v8h-15Zm0 0"></path>
                    </clipPath>
                    <clipPath id="1822a9c1-4745-413e-bcf5-ad7fd72e662d_comp-lnisigcf">
                        <path d="m283.492 234.727 7.445-6.297 11.625 13.742-7.445 6.297Zm0 0"></path>
                    </clipPath>
                    <clipPath id="26e72b02-4edc-4960-bc5c-ad43f79a9e73_comp-lnisigcf">
                        <path d="m283.492 234.727 7.445-6.297 11.625 13.742-7.445 6.297Zm0 0"></path>
                    </clipPath>
                </defs>
                <path fill="#ffffff" d="M412.5-37.5v450h-450v-450h450z" data-color="1"></path>
                <path fill="rgb(235, 233, 232)" d="M412.5-37.5v450h-450v-450h450z" data-color="2"></path>
                <g clip-path="url(#db960291-cd91-43ea-8fad-871a01a8791d_comp-lnisigcf)">
                    <g clip-path="url(#ae6d99f8-d488-4ccb-abf8-6abba7658639_comp-lnisigcf)">
                        <g clip-path="url(#be606df2-78aa-406b-a17b-a491bd2e425a_comp-lnisigcf)">
                            <path d="M198.137 99.629c-2.23.234-4.469.289-6.711.164a8.82 8.82 0 0 1-3.035-.633c-.532-.254-.825-.594-.75-1.043a3.46 3.46 0 0 1 .922-1.555c5.8-6.558 8.722-8.582 9.828-7.597 1.18 1.043.797 5.11-.254 10.664M55.27 78.145c2.988-1.157 5.746-.985 8.046.82 1.606 1.254 1.977 2.07 1.645 2.5-.555.707-2.453.844-4.453.426-2-.422-4.156-1.489-5.004-3.172a3.687 3.687 0 0 1-.234-.574Zm91.89 92.98c1.309-3.504 5.528-6.82 11.313-9.648l.023.109c.969 2.691.73 5.809-.113 8.726a20.245 20.245 0 0 1-4.008 7.473c-1.602 1.805-3.23 2.692-4.184 1.844-3.246-2.914-4.039-5.79-3.03-8.504Zm-37.512-68.926c5.98 11.535 13.57 13.223 21.915 11.696-1.887 4.347-6.208 9.078-13.805 13.843-5.125 3.23-9.703 5.192-13.79 6.067-4.886 1.039-9.07.507-12.644-1.239s-6.566-4.793-9.078-8.738c-3.473-5.523-5.984-12.844-7.746-21.101a7.485 7.485 0 0 1 0-3.118c6.61-2.953 14.703-5.597 24.5-7.78a33.04 33.04 0 0 1 9.258-.677 15.45 15.45 0 0 0-.32 5.649 15.427 15.427 0 0 0 1.71 5.394Zm58.52-5.597c2.926-3.457 4.828-7.407 5.715-11.848 1.656 3.867 2.05 8.152 1.508 12.566a35.56 35.56 0 0 1-1.086 5.38 60.328 60.328 0 0 0-6.137-6.102Zm-3.887 3.777a29.646 29.646 0 0 0 3.074-2.867 60.76 60.76 0 0 1 6.52 6.554 51.003 51.003 0 0 1-4.219 9.516c-4.867 8.633-12.047 16.27-19.027 20.496-8.375 5.078-19.79 9.274-31.61 12.66-11.82 3.39-24.093 5.992-34.109 7.864-10.992 2.046-22.742-3.051-29.629-11.29-2.781-3.234-4.625-6.933-5.543-11.097a20.763 20.763 0 0 1 1.309-12.512c2.941-6.887 9.805-13.73 22.133-19.5a8.454 8.454 0 0 0 .14 2.77c1.793 8.39 4.336 15.836 7.907 21.52 2.605 4.144 5.773 7.339 9.578 9.195 3.808 1.855 8.265 2.44 13.441 1.335 4.227-.898 8.934-2.91 14.176-6.218 8.25-5.207 12.773-10.375 14.582-15.172a97.626 97.626 0 0 0 10.574-3.223l1.59-.543c7.035-2.441 13.844-5.195 19.113-9.492Zm-49.23-21.902a12.056 12.056 0 0 0-.164 1.757c-3 2.938-5.2 6.246-6.293 9.72a34.26 34.26 0 0 0-9.86.69c-9.39 2.094-17.25 4.61-23.757 7.442 1.644-4.031 6.293-7.777 12.27-10.926 6.401-3.37 14.292-6.023 21.64-7.594a71.608 71.608 0 0 1 6.164-1.093Zm1.156.535c.035-.23.074-.465.117-.692l.79-.082c-.305.246-.63.508-.91.77Zm-1.238 3.058c.52 4.23 1.562 7.426 2.972 9.72a38.795 38.795 0 0 0-8.101-1.735 21.902 21.902 0 0 1 5.113-8.172Zm6.976 13.582a9.203 9.203 0 0 0 3.293.996 18.42 18.42 0 0 1 5.98 6.297 11.668 11.668 0 0 1 1.391 4.211c.196 1.492.11 2.969-.261 4.426-.082.309-.164.621-.27.934-8.176 1.613-15.605.199-21.348-10.895a14.22 14.22 0 0 1-1.593-5.082 14.238 14.238 0 0 1 .355-5.312 36.44 36.44 0 0 1 9.75 2.308 9.511 9.511 0 0 0 2.707 2.133Zm15.09-2.66a40.961 40.961 0 0 0 8.98-8.004c4.07 1.621 8 3.528 11.794 5.715a63.385 63.385 0 0 1 8.617 6 29.284 29.284 0 0 1-2.906 2.703c-5.153 4.176-11.825 6.887-18.747 9.258l-1.593.55a101.908 101.908 0 0 1-9.735 3.009l.094-.356a12.931 12.931 0 0 0-1.234-9.496 18.656 18.656 0 0 0-4.942-5.672 16.01 16.01 0 0 0 1.934-.281 23.566 23.566 0 0 0 7.738-3.426Zm7.785-8.469a40.014 40.014 0 0 1-8.468 7.434A22.517 22.517 0 0 1 129 95.203a11.159 11.159 0 0 1-3.36.25l-.53-.344a31.095 31.095 0 0 0-5.16-2.59c-1.81-2.14-3.157-5.558-3.766-10.605a11.58 11.58 0 0 1-.086-1.164 35.123 35.123 0 0 1 2.496-2.137l.734-.562c3.516-.207 6.52-.008 8.645.683 5.972 1.871 11.597 3.715 16.87 5.801Zm6.508-10.18c.035-1.5-.066-2.988-.308-4.468a35.362 35.362 0 0 1 12.855 4.25c3.996 2.258 6.84 5.027 8.727 8.145.128.21.253.43.37.64a25.24 25.24 0 0 1-1.956 6.852 25.388 25.388 0 0 1-3.77 6.039 65.967 65.967 0 0 0-8.816-6.137 91.22 91.22 0 0 0-11.606-5.652c2.73-3.504 4.496-7.051 4.528-9.66Zm-1.582-4.613a22.4 22.4 0 0 1 .36 4.594c-.028 2.461-1.77 5.86-4.465 9.211-5.399-2.156-11.188-4.05-17.325-5.992a23.326 23.326 0 0 0-7.164-.785 44.717 44.717 0 0 1 13.95-5.957 43.323 43.323 0 0 1 14.668-1.063Zm-2.027-6.738a13.83 13.83 0 0 0-1.59-1.433c4.941-.621 9.926-.856 14.27-.067 8.218 1.488 14.128 6.64 12.843 19.473a24.4 24.4 0 0 0-8.75-7.903 36.54 36.54 0 0 0-13.699-4.445 11.97 11.97 0 0 0-3.05-5.617Zm-3.418-1.187c.93.574 1.773 1.25 2.535 2.03a10.71 10.71 0 0 1 2.61 4.634 46.468 46.468 0 0 0-23.602 4.313 46.617 46.617 0 0 0-6.977 4.073c-.73.047-1.476.11-2.234.192a15.18 15.18 0 0 1 3.422-5.61 25.719 25.719 0 0 1 5.75-4.554 25.662 25.662 0 0 1 6.8-2.754c3.528-.8 7.583-1.684 11.723-2.313Zm-35.754 3.785c1.957-2.281 7.555-4.5 13.426-5.945 6.113-1.497 12.465-2.122 15.285-1.075a50.97 50.97 0 0 1 5.347 2.27c-3.66.613-7.175 1.387-10.308 2.105a26.872 26.872 0 0 0-7.133 2.88 26.83 26.83 0 0 0-6.039 4.773 16.11 16.11 0 0 0-3.82 6.597c-2.145.27-4.395.657-6.703 1.145-7.446 1.594-15.454 4.285-21.957 7.71-6.582 3.466-11.649 7.708-13.114 12.337-.039.113-.07.222-.101.34-13.133 5.976-20.434 13.207-23.535 20.488a21.752 21.752 0 0 0-1.715 6.508 21.85 21.85 0 0 0 .34 6.726c.957 4.367 2.89 8.25 5.804 11.645 7.176 8.582 19.38 13.86 30.813 11.71 10.05-1.874 22.316-4.472 34.218-7.886 11.903-3.414 23.426-7.648 31.907-12.793 7.133-4.324 14.496-12.117 19.46-20.934a53.118 53.118 0 0 0 4.071-9.03 70.003 70.003 0 0 1 5.594 7.925l1.039-.629a69.67 69.67 0 0 0-6.192-8.7 37.78 37.78 0 0 0 1.364-6.304c.644-5.226.011-10.297-2.356-14.77.047-.363.094-.73.133-1.117 1.578-14.054-4.832-19.68-13.79-21.304-4.886-.883-10.519-.551-16 .254a41.938 41.938 0 0 0-6.886-3.106c-3.047-1.133-9.68-.515-16 1.028-6.086 1.488-11.93 3.851-14.054 6.335Zm77.683 2.16a22.779 22.779 0 0 0 4.489 3.191 115.29 115.29 0 0 0-1.453 5.95l-.188.043.746 3.511.57-2.945c.211-1.094.774-3.516 1.43-5.977.11.063.227.118.344.168a67.01 67.01 0 0 0 6.644 2.7l.415-1.149a66.66 66.66 0 0 1-6.465-2.629l-.563-.281.344-1.207c.586-2 1.164-3.672 1.535-4.168l-.965-.754c-.48.621-1.12 2.442-1.738 4.567-.094.316-.184.636-.277.96a21.305 21.305 0 0 1-3.985-2.867Zm-19.953 71.598a23.013 23.013 0 0 0 4.485 3.187c-.625 2.324-1.184 4.68-1.446 5.953l-.195.047.746 3.512.574-2.945c.211-1.09.801-3.524 1.426-5.977l.352.172a66.954 66.954 0 0 0 6.644 2.691l.41-1.144a66.385 66.385 0 0 1-6.468-2.637l-.555-.277c.113-.414.227-.82.344-1.211.586-2 1.16-3.68 1.531-4.168l-.96-.754c-.481.621-1.122 2.441-1.747 4.566l-.273.961a21.305 21.305 0 0 1-3.985-2.867Zm-90.52-66.98a23.172 23.172 0 0 0 4.481 3.19 120.144 120.144 0 0 0-1.445 5.954l-.191.043.746 3.511.574-2.949c.207-1.09.773-3.515 1.426-5.972l.347.168a66.116 66.116 0 0 0 6.649 2.695l.41-1.145a65.06 65.06 0 0 1-6.52-2.648c-.183-.09-.375-.18-.554-.278a66.2 66.2 0 0 1 .34-1.207c.59-2 1.16-3.68 1.535-4.168l-.97-.753c-.476.62-1.112 2.441-1.737 4.566a37.57 37.57 0 0 0-.274.957 21.36 21.36 0 0 1-3.992-2.867Zm-12.894 54.6a23.013 23.013 0 0 0 4.485 3.188c-.625 2.324-1.184 4.68-1.446 5.953l-.195.047.746 3.516.567-2.98c.21-1.087.8-3.52 1.43-5.973l.347.172a67.312 67.312 0 0 0 6.652 2.722l.41-1.148a65.971 65.971 0 0 1-6.52-2.645l-.558-.285c.117-.406.23-.808.348-1.207.582-1.996 1.16-3.676 1.527-4.164l-.957-.754c-.48.617-1.12 2.438-1.746 4.57l-.273.957a21.484 21.484 0 0 1-3.985-2.867Zm196.094 121.907c.219-.352.477-.676.77-.969a5.24 5.24 0 0 1 .964-.773 5.228 5.228 0 0 1 1.118-.531 5.47 5.47 0 0 1 2.45-.25 5.425 5.425 0 0 1 3.992 2.656 5.495 5.495 0 0 1 .718 2.351 5.477 5.477 0 0 1-.395 2.43 5.353 5.353 0 0 1-1.426 2.004 5.197 5.197 0 0 1-1.015.707 5.393 5.393 0 0 1-2.375.645 5.251 5.251 0 0 1-1.235-.098 5.25 5.25 0 0 1-1.18-.375 5.612 5.612 0 0 1-1.062-.633 5.303 5.303 0 0 1-.89-.86 5.328 5.328 0 0 1-.676-1.038 5.605 5.605 0 0 1-.422-1.164 5.408 5.408 0 0 1 .664-4.102Zm3.086-3.621a6.43 6.43 0 0 0-1.426.52 6.65 6.65 0 0 0-2.328 1.918 6.802 6.802 0 0 0-.777 1.308c-.207.465-.36.945-.457 1.445-.102.5-.14 1.008-.121 1.516.02.508.093 1.012.226 1.504s.32.96.563 1.41a6.709 6.709 0 0 0 1.996 2.266c.414.293.86.539 1.328.734a6.6 6.6 0 0 0 4.473.207 6.603 6.603 0 0 0 2.61-1.516 6.571 6.571 0 0 0 1.668-2.512c.179-.48.3-.972.366-1.476a6.674 6.674 0 0 0-.957-4.375 6.613 6.613 0 0 0-2.137-2.129 6.567 6.567 0 0 0-2.433-.91 6.592 6.592 0 0 0-2.594.09Zm13.508.77a4.637 4.637 0 0 1 2.441-1.942 4.658 4.658 0 0 1 3.117.047c.332.125.649.285.942.484.297.196.566.422.808.684.243.258.454.539.633.848a4.686 4.686 0 0 1 .613 2.012 4.633 4.633 0 0 1-.852 3 4.583 4.583 0 0 1-1.578 1.39 4.659 4.659 0 0 1-2.027.547 4.767 4.767 0 0 1-1.054-.082 4.672 4.672 0 0 1-2.68-1.602 4.605 4.605 0 0 1-.934-1.883c-.292-1.246-.101-2.414.57-3.504Zm2.601-3.266a5.982 5.982 0 0 0-1.257.457 5.86 5.86 0 0 0-1.122.726 6.18 6.18 0 0 0-.925.965 5.817 5.817 0 0 0-1.086 2.426 5.896 5.896 0 0 0-.106 1.336c.02.445.086.887.203 1.32.118.434.282.848.496 1.242.211.395.47.762.766 1.098.297.336.625.637.992.895a5.96 5.96 0 0 0 1.172.648c.414.168.844.29 1.285.363a5.927 5.927 0 0 0 2.653-.183 5.866 5.866 0 0 0 2.293-1.336 5.7 5.7 0 0 0 .863-1.024 5.808 5.808 0 0 0 .945-3.824 5.756 5.756 0 0 0-.285-1.308 5.703 5.703 0 0 0-.574-1.207 5.806 5.806 0 0 0-1.883-1.875 5.784 5.784 0 0 0-2.144-.805 5.774 5.774 0 0 0-2.286.086Zm11.934.867c.129-.21.281-.402.457-.578a3.118 3.118 0 0 1 1.242-.781c.235-.082.477-.137.723-.16.246-.028.492-.024.738.007.246.032.488.09.719.18.234.086.453.195.66.336.207.137.395.293.563.476a3.118 3.118 0 0 1 .742 1.27c.07.238.117.48.132.727a3.321 3.321 0 0 1-.234 1.453 3.308 3.308 0 0 1-.852 1.195 3.261 3.261 0 0 1-2.027.805 3.364 3.364 0 0 1-.738-.059 3.233 3.233 0 0 1-2.52-2.438 3.056 3.056 0 0 1 .395-2.433Zm1.719-2.633c-1.192.281-2.114.942-2.758 1.988a4.405 4.405 0 0 0-.61 1.622 4.372 4.372 0 0 0-.054.87 4.365 4.365 0 0 0 .836 2.441 4.343 4.343 0 0 0 1.27 1.18c.245.157.507.282.78.387a4.475 4.475 0 0 0 1.711.278 4.547 4.547 0 0 0 1.688-.399 4.26 4.26 0 0 0 .754-.437c.238-.172.457-.363.656-.574.195-.215.375-.446.527-.696a4.389 4.389 0 0 0 .606-1.62c.047-.29.066-.579.055-.872a4.286 4.286 0 0 0-.399-1.687 4.404 4.404 0 0 0-1.012-1.407 4.494 4.494 0 0 0-.69-.527c-1.044-.648-2.165-.832-3.36-.547Zm-37.035 10.543-.254.059c-3.907.86-10.496-1.938-16.54-6.434-6.042-4.5-11.55-10.758-13.18-16.722l-.155-.66c-3.028-13.704-1.72-23.86-.489-33.423 1.344-10.437 2.594-20.187-1.875-33.015-3.23-9.309-20.28-11.18-37.492-8.703-8.824 1.27-17.7 3.668-24.758 6.77-.324.148-.644.288-.98.445-3.594-6.832-15.399-10.286-44.129.07-3.375 1.215-7.527 3.91-12.293 7.008-15.457 10.05-37.45 24.351-58.7 3.832-18.14-17.508-17.655-43.285-10.468-63.336a75.11 75.11 0 0 1 8.508-16.934c3.23-4.742 6.758-8.457 10.176-10.691a17.27 17.27 0 0 1 1.972-1.13c.075.22.164.434.27.645 1.027 2.051 3.5 3.309 5.844 3.809 2.347.504 4.816.203 5.656-.863.773-.985.449-2.414-1.84-4.219-2.61-2.055-5.703-2.309-8.961-1.117.11-3.453 4.59-8.696 18.86-15.93 23.09-11.742 45.113-19.031 67.246-20.406 22.132-1.371 44.324 3.191 67.898 15.156 4.11 2.11 8.148 6.508 10.734 11.781a25.807 25.807 0 0 1 2.91 12.336 17.302 17.302 0 0 1-1.296 6.227 17.276 17.276 0 0 1-3.446 5.344c-3.09 3.289-7.836 5.945-14.754 7.5-.515.12-1.972.351-3.836.558 1.047-5.797 1.332-10.105-.18-11.445-1.687-1.488-5.175.48-11.558 7.695-.597.61-1 1.332-1.207 2.16-.183 1.09.375 1.844 1.418 2.348a9.952 9.952 0 0 0 3.477.758 42.35 42.35 0 0 0 6.558-.145c-.613 3.106-1.41 6.61-2.234 10.278-3.797 16.808-8.348 36.937.047 39.765l.379-1.136c-7.352-2.485-2.934-22.024.746-38.344.86-3.801 1.676-7.438 2.3-10.668 2.094-.223 3.786-.496 4.336-.621 7.16-1.598 12.13-4.395 15.375-7.848a18.461 18.461 0 0 0 3.684-5.715 18.456 18.456 0 0 0 1.383-6.656c.07-4.559-.93-8.867-3.004-12.926-2.695-5.504-6.918-10.12-11.285-12.32C185.84 42.594 163.403 38 141.09 39.379c-22.309 1.375-44.438 8.707-67.672 20.488-15.262 7.742-19.715 13.594-19.504 17.52-.832.394-1.633.843-2.398 1.355-3.555 2.32-7.2 6.149-10.516 11.02a76.234 76.234 0 0 0-8.625 17.207c-7.316 20.426-7.785 46.719 10.773 64.629 21.946 21.183 44.41 6.578 60.215-3.688 4.711-3.058 8.785-5.71 12.047-6.883 27.89-10.03 39.227-6.972 42.602-.648-6.102 2.965-10.555 6.516-11.977 10.336-1.195 3.203-.324 6.539 3.403 9.824 1.562 1.39 3.832.395 5.91-1.934a21.392 21.392 0 0 0 4.261-7.917c.934-3.141 1.176-6.543.118-9.497l-.086-.218c.312-.149.632-.29.953-.43 6.957-3.066 15.726-5.434 24.441-6.688 16.684-2.394 33.16-.746 36.168 7.899 4.367 12.566 3.137 22.172 1.809 32.465-1.239 9.656-2.563 19.926.515 33.84.055.234.114.472.168.703 1.68 6.25 7.344 12.726 13.61 17.394 6.265 4.668 13.246 7.567 17.492 6.625l.281-.066Zm0 0" fill="#4b4747" data-color="3"></path>
                        </g>
                    </g>
                </g>
                <g clip-path="url(#f6a3364a-6eeb-4cc0-b00d-2f78e9f72e3d_comp-lnisigcf)">
                    <g clip-path="url(#58633a42-2f62-404b-a028-21b33f8699ce_comp-lnisigcf)">
                        <g clip-path="url(#ee82066f-8362-430c-8f32-5c9c9c0ee759_comp-lnisigcf)">
                            <path d="M286.285 234.434c.555.656 1.55.734 2.219.168a1.575 1.575 0 0 0 .2-2.22 1.575 1.575 0 0 0-2.22-.167 1.575 1.575 0 0 0-.199 2.219Zm0 0" fill="#4b4747" data-color="3"></path>
                        </g>
                    </g>
                </g>
                <g clip-path="url(#9abc0b42-5b15-4558-90cd-fb24f63e1469_comp-lnisigcf)">
                    <g clip-path="url(#6a6f104a-b4aa-4a37-a52d-fc6032fe9cca_comp-lnisigcf)">
                        <g clip-path="url(#9fc84f88-18af-467b-8e65-7c65708ec5c8_comp-lnisigcf)">
                            <path d="m289.977 237.129-.329-.004a.473.473 0 0 0-.324.117.474.474 0 0 0 .293.844l1.098.02s.004 0 .008.003l2.636.047a.495.495 0 0 0 .325-.117l2.77-2.344a.478.478 0 1 0-.622-.73l-2.531 2.144a.338.338 0 0 1-.215.078l-3.094-.054c-.004 0-.012-.004-.015-.004Zm0 0" fill="#4b4747" data-color="3"></path>
                        </g>
                    </g>
                </g>
                <g clip-path="url(#1b067df8-b23a-4ff1-8464-78919c2cbf15_comp-lnisigcf)">
                    <g clip-path="url(#1822a9c1-4745-413e-bcf5-ad7fd72e662d_comp-lnisigcf)">
                        <g clip-path="url(#26e72b02-4edc-4960-bc5c-ad43f79a9e73_comp-lnisigcf)">
                            <path d="m287.902 237.82 1.907 4.047c.32.68.93 1.16 1.668 1.317a2.458 2.458 0 0 0 2.09-.532l1.937-1.64a.464.464 0 0 1 .492-.07l4.371 2.128c.473.23 1.082.032 1.32-.449a.979.979 0 0 0-.437-1.316l-4.367-2.125a2.439 2.439 0 0 0-2.645.34l-1.937 1.64a.447.447 0 0 1-.41.094.418.418 0 0 1-.297-.238l-1.07-2.27-.926-.02a1.102 1.102 0 0 1-1.09-1.14c.015-.488.347-.899.793-1.043a.997.997 0 0 0-.922-.035 1 1 0 0 0-.477 1.312Zm0 0" fill="#4b4747" data-color="3"></path>
                        </g>
                    </g>
                </g>
                <path d="M90.213 226.59c-2.836 0-5.25-.437-7.25-1.312-1.992-.875-3.637-1.836-4.938-2.89a18.344 18.344 0 0 1-3.875-4.235l2.454-2.453a16.258 16.258 0 0 0 3.203 3.266c1.05.836 2.347 1.59 3.89 2.265 1.551.668 3.36 1 5.422 1 2.719 0 4.801-.675 6.25-2.03 1.457-1.364 2.188-3.134 2.188-5.313 0-1.125-.524-2.067-1.563-2.828-1.031-.758-2.328-1.47-3.89-2.125a156.485 156.485 0 0 0-5.032-2.016 28.897 28.897 0 0 1-5.03-2.5c-1.556-.977-2.852-2.156-3.892-3.531-1.03-1.383-1.546-3.13-1.546-5.235 0-1.3.316-2.566.953-3.797.633-1.238 1.55-2.336 2.75-3.296 1.195-.97 2.676-1.75 4.437-2.344 1.758-.602 3.766-.906 6.016-.906 2.383 0 4.473.386 6.265 1.156 1.801.761 3.301 1.61 4.5 2.547a20.044 20.044 0 0 1 3.657 3.64l-2.453 2.188a17.759 17.759 0 0 0-3.11-2.563c-.98-.656-2.133-1.254-3.453-1.797-1.324-.539-2.766-.812-4.328-.812-2.18 0-3.902.59-5.172 1.766-1.273 1.18-1.906 2.585-1.906 4.218 0 1.2.515 2.18 1.547 2.938 1.039.761 2.336 1.48 3.89 2.156a102.07 102.07 0 0 0 5.032 1.984c1.8.649 3.484 1.454 5.046 2.422 1.563.961 2.86 2.137 3.891 3.532 1.031 1.398 1.547 3.132 1.547 5.203 0 1.492-.344 2.945-1.031 4.359-.688 1.406-1.703 2.656-3.047 3.75-1.344 1.086-2.98 1.953-4.906 2.61-1.918.656-4.09.984-6.516.984Zm0 0" fill="#4b4747" data-color="3"></path>
                <path d="M121.384 187.403h28.297l-.813 4.625H129.01v11.422h14.688l-.813 4.625H129.01v12.797h21.5v4.625h-29.125Zm0 0" fill="#4b4747" data-color="3"></path>
                <path d="M165.624 187.403h28.297l-.813 4.625H173.25v11.422h14.688l-.813 4.625H173.25v12.797h21.5v4.625h-29.125Zm0 0" fill="#4b4747" data-color="3"></path>
                <path d="M233.698 187.403h7.078l14.688 22.313h.281l14.688-22.313h6.265v38.094h-7.625v-27.219h-.265l-13.875 21.235h-1.907l-14.312-21.235h-.39v27.219h-4.626Zm0 0" fill="#4b4747" data-color="3"></path>
                <path d="M294.534 187.403h28.297l-.813 4.625H302.16v11.422h14.688l-.813 4.625H302.16v12.797h21.5v4.625h-29.125Zm0 0" fill="#4b4747" data-color="3"></path>
                <path d="M151.41 289.892c.665.086 1.29.211 1.876.375.582.168 1.113.352 1.593.547l-.187 1.125h-10.563l.188-1.125c.594-.25 1.164-.438 1.719-.563.55-.132 1.109-.253 1.672-.359l4.828-22.875a10.698 10.698 0 0 1-1.578-.406 11.736 11.736 0 0 1-1.391-.563l.266-1.109h3.468c1.032 0 2.157-.05 3.375-.156a42.58 42.58 0 0 1 3.5-.156c1.227 0 2.364.125 3.407.375 1.039.242 1.925.625 2.656 1.156a5.439 5.439 0 0 1 1.719 1.969c.414.78.625 1.71.625 2.78 0 1.524-.278 2.93-.829 4.22a9.835 9.835 0 0 1-2.39 3.359c-1.043.95-2.297 1.695-3.766 2.234-1.469.531-3.101.797-4.89.797h-.657c-.293 0-.61-.004-.953-.015a23.99 23.99 0 0 1-1.047-.047 19.403 19.403 0 0 1-.86-.094Zm7.766-23.265c-.625 0-1.18.023-1.656.062-.469.043-.887.09-1.25.14l-2.625 12.5c.133.024.32.048.563.079.25.023.507.043.78.062.27.012.524.024.766.031.239.012.438.016.594.016 2.676 0 4.695-.765 6.063-2.297 1.363-1.531 2.047-3.617 2.047-6.265 0-.645-.075-1.227-.22-1.75a2.84 2.84 0 0 0-.812-1.375c-.398-.383-.937-.68-1.625-.891-.68-.207-1.554-.313-2.625-.313Zm0 0" fill="#4b4747" data-color="3"></path>
                <path d="m181.044 265.627-2.75-.344v-.969a13.58 13.58 0 0 1 1.25-.453c.476-.156.976-.3 1.5-.438.531-.144 1.05-.265 1.562-.359.52-.094.989-.14 1.406-.14l.766.421-5.328 26.438h2.828v1a6.676 6.676 0 0 1-1.875 1c-.73.258-1.445.39-2.14.39-.75 0-1.297-.168-1.641-.5-.344-.332-.516-.718-.516-1.156 0-.52.035-1.023.11-1.515.07-.489.175-1.024.312-1.61Zm0 0" fill="#4b4747" data-color="3"></path>
                <path d="M207.002 288.502a5.6 5.6 0 0 1-1 1.437c-.438.46-.953.875-1.547 1.25a7.888 7.888 0 0 1-2.016.89 8.42 8.42 0 0 1-2.39.329c-2.125 0-3.762-.61-4.906-1.828-1.149-1.227-1.72-2.922-1.72-5.078 0-1.833.255-3.555.767-5.172.519-1.625 1.238-3.04 2.156-4.25a10.05 10.05 0 0 1 3.375-2.844c1.332-.695 2.804-1.047 4.422-1.047 1.238 0 2.3.32 3.187.953.883.625 1.328 1.555 1.328 2.781 0 1.836-.906 3.278-2.718 4.329-1.813 1.054-4.743 1.734-8.782 2.046-.105.438-.18.868-.218 1.282-.032.406-.047.804-.047 1.187 0 1.543.39 2.805 1.172 3.781.789.98 1.94 1.47 3.453 1.47.488 0 .972-.079 1.453-.235a7.826 7.826 0 0 0 1.344-.578c.425-.239.812-.485 1.156-.735.351-.258.656-.492.906-.703Zm-4.047-14.657c-1.117.031-2.148.559-3.094 1.578-.949 1.012-1.757 2.75-2.421 5.22 2.488-.083 4.425-.516 5.812-1.298 1.395-.781 2.094-1.867 2.094-3.265 0-.54-.164-1.04-.485-1.5-.324-.457-.96-.703-1.906-.735Zm0 0" fill="#4b4747" data-color="3"></path>
                <path d="M223.552 290.017c.687 0 1.379-.328 2.078-.984a13.542 13.542 0 0 0 1.969-2.375 26.087 26.087 0 0 0 1.656-2.89 54.698 54.698 0 0 0 1.156-2.516l1.235-6.594a3.603 3.603 0 0 0-1.047-.547c-.336-.102-.793-.156-1.375-.156-1.188 0-2.266.37-3.235 1.109-.96.73-1.78 1.672-2.468 2.828-.68 1.156-1.203 2.445-1.578 3.86a16.276 16.276 0 0 0-.563 4.171c0 1.313.16 2.325.484 3.032.32.71.883 1.062 1.688 1.062Zm6.094-5.64c-.336.93-.758 1.87-1.266 2.828a14.07 14.07 0 0 1-1.734 2.578 9.036 9.036 0 0 1-2.188 1.89 4.75 4.75 0 0 1-2.531.735c-2.68 0-4.016-1.942-4.016-5.828 0-1.801.254-3.555.766-5.266.52-1.707 1.27-3.227 2.25-4.563a11.528 11.528 0 0 1 3.562-3.234c1.407-.812 2.993-1.219 4.766-1.219.645 0 1.16.063 1.547.188.383.117.848.289 1.39.516a6.827 6.827 0 0 1 3.235-.813l-3.469 17.625h2.813v.969c-.512.406-1.133.742-1.86 1a6.232 6.232 0 0 1-2.11.39c-.75 0-1.288-.164-1.608-.484-.325-.32-.485-.66-.485-1.016 0-.468.086-1.226.266-2.28.187-1.052.46-2.391.828-4.016Zm0 0" fill="#4b4747" data-color="3"></path>
                <path d="M253.602 287.392c-.031-.625-.211-1.16-.531-1.61a6.883 6.883 0 0 0-1.235-1.28 27.99 27.99 0 0 0-1.61-1.235 13.966 13.966 0 0 1-1.593-1.375c-.5-.5-.914-1.078-1.234-1.734-.325-.656-.485-1.446-.485-2.375 0-.926.18-1.735.547-2.422a5.012 5.012 0 0 1 1.484-1.734c.633-.47 1.395-.82 2.282-1.063.883-.25 1.851-.375 2.906-.375.664 0 1.414.059 2.25.172.844.117 1.633.39 2.375.828 0 .281-.055.61-.156.984a5.725 5.725 0 0 1-.39 1.079 7.566 7.566 0 0 1-.563.968c-.211.293-.43.492-.657.594l-2.859-2.969a9.804 9.804 0 0 0-1.516.203c-.46.094-.859.262-1.203.5-.343.23-.617.532-.812.907-.188.367-.281.836-.281 1.406 0 .668.164 1.242.5 1.719.332.468.75.918 1.25 1.343.5.43 1.035.84 1.609 1.235.582.398 1.125.844 1.625 1.344.508.5.93 1.078 1.266 1.734.332.656.5 1.437.5 2.344 0 .93-.215 1.75-.641 2.468a5.852 5.852 0 0 1-1.734 1.829c-.731.5-1.579.882-2.547 1.14-.97.258-1.993.39-3.063.39-1.086 0-2.07-.109-2.953-.327-.887-.22-1.59-.493-2.11-.828.133-.676.29-1.329.47-1.954.175-.632.55-1.218 1.124-1.75l3.47 3.188c.538 0 1.07-.063 1.593-.188a4.271 4.271 0 0 0 1.422-.609c.426-.29.773-.64 1.047-1.047.27-.414.422-.914.453-1.5Zm0 0" fill="#4b4747" data-color="3"></path>
                <path d="M281.873 288.502a5.6 5.6 0 0 1-1 1.437c-.438.46-.953.875-1.547 1.25a7.888 7.888 0 0 1-2.016.89 8.42 8.42 0 0 1-2.39.329c-2.125 0-3.762-.61-4.906-1.828-1.149-1.227-1.72-2.922-1.72-5.078 0-1.833.255-3.555.767-5.172.519-1.625 1.238-3.04 2.156-4.25a10.05 10.05 0 0 1 3.375-2.844c1.332-.695 2.804-1.047 4.422-1.047 1.238 0 2.3.32 3.187.953.883.625 1.328 1.555 1.328 2.781 0 1.836-.906 3.278-2.719 4.329-1.812 1.054-4.742 1.734-8.78 2.046-.106.438-.18.868-.22 1.282-.03.406-.046.804-.046 1.187 0 1.543.39 2.805 1.171 3.781.79.98 1.942 1.47 3.454 1.47.488 0 .972-.079 1.453-.235a7.826 7.826 0 0 0 1.344-.578c.425-.239.812-.485 1.156-.735.351-.258.656-.492.906-.703Zm-4.047-14.657c-1.117.031-2.148.559-3.094 1.578-.949 1.012-1.757 2.75-2.422 5.22 2.489-.083 4.426-.516 5.813-1.298 1.395-.781 2.094-1.867 2.094-3.265 0-.54-.164-1.04-.485-1.5-.324-.457-.96-.703-1.906-.735Zm0 0" fill="#4b4747" data-color="3"></path>
            </g>
        </svg>